<?xml version="1.0" encoding="UTF-8"?>
<svg id="Layer_1" data-name="Layer 1" xmlns="http://www.w3.org/2000/svg" viewBox="0 0 797 500">
  <defs>
    <style>
      .cls-1 {
        fill: #fff;
      }

      .cls-2 {
        fill: #e7b797;
      }

      .cls-3 {
        fill: #f7941d;
      }
    </style>
  </defs>
  <g>
    <path class="cls-2" d="M644.33,263.35c-.04-.15-.08-.3-.13-.46-.82-2.58-3.19-4.38-5.81-4.41-3-.04-5.02,1.5-6.3,4.82-.07.17-.14.34-.2.52-.09-.18-.17-.35-.27-.52-1.54-2.82-3.76-4.05-6.63-3.68-2.14.27-3.99,1.68-4.89,3.63-.2.43-.35.88-.44,1.36-.28,1.41-.16,2.65.41,3.76h11.56c.24-.51.4-1.08.52-1.7.25.64.54,1.2.91,1.7h10.18c1.2-1.55,1.54-3.19,1.09-5.02Z"/>
    <path class="cls-2" d="M619.46,266.43c.04.67-.01,1.33-.16,1.94h-11.84c-.08-.31-.13-.62-.16-.93-.14-1.58.35-3.07,1.28-4.24,1.01-1.3,2.54-2.19,4.29-2.33,2.11-.17,4.12.79,5.36,2.37.71.9,1.16,1.99,1.23,3.19Z"/>
    <path class="cls-2" d="M656.77,263.4c.09,1.96-.79,3.78-2.22,4.97h-7.7c-1.24-1.01-2.1-2.49-2.24-4.16-.02-.29-.03-.58,0-.86.18-2.96,2.55-5.47,5.57-5.73,3.32-.28,6.3,2.23,6.58,5.55,0,.08.01.16.01.23Z"/>
    <path class="cls-2" d="M637.67,258.34c3.2-.31,5.61-3.2,5.34-6.4-.27-3.2-3.13-5.63-6.35-5.38-3.22.24-5.7,3.16-5.42,6.39.27,3.22,3.23,5.7,6.43,5.39h0Z"/>
    <path class="cls-2" d="M625.23,259.44c3.16-.19,5.7-3.17,5.44-6.4-.25-3.2-3.1-5.63-6.33-5.4-3.19.22-5.64,3.06-5.44,6.3.19,3.19,3.08,5.7,6.34,5.51h0Z"/>
    <path class="cls-2" d="M606.61,267.59c.02.26.02.52,0,.78h-11.48c-.11-2.16,1-4.13,2.73-5.22.74-.46,1.6-.76,2.52-.84,1.28-.11,2.51.22,3.54.87,1.49.94,2.55,2.55,2.69,4.41Z"/>
    <path class="cls-2" d="M612.74,260.36c3.14-.23,5.55-3.07,5.29-6.22-.26-3.11-3.05-5.48-6.18-5.25-3.14.23-5.55,3.07-5.29,6.22.26,3.12,3.05,5.49,6.18,5.25h0Z"/>
    <path class="cls-2" d="M663.72,268.3c3.13-.3,5.48-3.12,5.18-6.24-.3-3.13-3.12-5.48-6.24-5.18-3.13.3-5.48,3.12-5.18,6.24.3,3.14,3.12,5.48,6.24,5.18h0Z"/>
    <path class="cls-2" d="M650.13,257.06c3.13-.29,5.48-3.11,5.19-6.23-.29-3.14-3.11-5.48-6.23-5.19-3.14.29-5.48,3.11-5.19,6.23.29,3.14,3.11,5.48,6.23,5.19h0Z"/>
    <path class="cls-2" d="M600.26,261.16c3-.26,5.24-2.91,4.98-5.91-.26-3-2.91-5.24-5.91-4.98-3,.26-5.24,2.91-4.98,5.91.26,3,2.91,5.24,5.91,4.98h0Z"/>
    <path class="cls-2" d="M662.58,255.69c2.99-.26,5.23-2.94,4.96-5.93-.27-2.99-2.96-5.22-5.95-4.94-2.95.28-5.17,2.93-4.92,5.89.25,2.99,2.93,5.24,5.91,4.98h0Z"/>
    <path class="cls-2" d="M682.13,275.01c-2.64-1.9-5.85-3.47-9.45-4.6.91-1.03,2.19-1.73,3.64-1.85,2.99-.25,5.65,2.01,5.89,5,.04.5,0,.99-.08,1.45Z"/>
    <path class="cls-2" d="M636.52,245.38c2.99-.27,5.22-2.96,4.94-5.95-.28-2.99-2.98-5.21-5.97-4.92-2.95.29-5.16,2.95-4.9,5.9.26,2.99,2.94,5.23,5.93,4.96h0Z"/>
    <path class="cls-2" d="M624.14,246.47c2.99-.25,5.24-2.92,4.98-5.91-.26-2.99-2.94-5.23-5.92-4.96-2.96.27-5.18,2.91-4.95,5.86.24,2.99,2.9,5.25,5.89,5.01h0Z"/>
    <path class="cls-2" d="M593.64,268.37h-10.52c.32-2.41,2.28-4.32,4.83-4.54,2.84-.23,5.3,1.75,5.69,4.54Z"/>
    <path class="cls-2" d="M611.67,247.43c2.94-.26,5.08-2.8,4.83-5.74-.25-2.98-2.81-5.14-5.78-4.87-2.94.26-5.08,2.8-4.83,5.74.25,2.98,2.81,5.13,5.78,4.87h0Z"/>
    <path class="cls-2" d="M676.17,266.79c2.92-.26,5.06-2.83,4.81-5.76-.26-2.93-2.82-5.08-5.74-4.83-2.93.25-5.09,2.8-4.85,5.72.25,2.97,2.82,5.13,5.78,4.86h0Z"/>
    <path class="cls-2" d="M649.04,244.14c2.91-.27,5.04-2.85,4.77-5.79-.27-2.92-2.84-5.05-5.77-4.79-2.92.26-5.07,2.83-4.81,5.75.26,2.96,2.84,5.11,5.81,4.83h0Z"/>
    <path class="cls-2" d="M599.14,248.32c2.78-.24,4.89-2.74,4.67-5.53-.23-2.78-2.72-4.9-5.51-4.69-2.78.21-4.91,2.7-4.71,5.49.2,2.81,2.74,4.97,5.55,4.73h0Z"/>
    <path class="cls-2" d="M587.71,261.91c2.81-.22,4.95-2.77,4.69-5.58-.26-2.79-2.77-4.88-5.55-4.64s-4.89,2.75-4.66,5.53c.23,2.78,2.73,4.9,5.52,4.68h0Z"/>
    <path class="cls-2" d="M675.05,254.25c2.78-.24,4.9-2.78,4.64-5.55-.26-2.79-2.8-4.89-5.57-4.62-2.79.28-4.89,2.82-4.6,5.59.29,2.77,2.77,4.82,5.53,4.58h0Z"/>
    <path class="cls-2" d="M661.36,242.86c2.74-.16,4.87-2.58,4.75-5.38-.12-2.76-2.58-4.95-5.41-4.81-2.76.13-4.94,2.6-4.79,5.42.15,2.76,2.63,4.93,5.44,4.77h0Z"/>
    <path class="cls-2" d="M695.17,284.95c.13,1.43-.34,2.77-1.22,3.76-.81.93-1.97,1.55-3.3,1.67-.25.02-.5.03-.74.01v-2.34c0-2.48-.73-4.86-2.05-7.05.56-.3,1.19-.49,1.86-.56,1.56-.15,3.01.43,4.02,1.45.79.79,1.32,1.85,1.43,3.06Z"/>
    <path class="cls-2" d="M623.03,233.51c2.77-.24,4.79-2.66,4.54-5.42-.25-2.76-2.67-4.77-5.44-4.52-2.72.25-4.73,2.65-4.5,5.38.23,2.77,2.64,4.8,5.41,4.56h0Z"/>
    <path class="cls-2" d="M688.81,267.94c-2.71.25-4.74,2.66-4.51,5.38.23,2.75,2.67,4.79,5.42,4.54,2.71-.25,4.74-2.66,4.51-5.38-.23-2.75-2.67-4.79-5.42-4.54h0Z"/>
    <path class="cls-2" d="M635.33,232.42c2.75-.22,4.81-2.66,4.57-5.4-.24-2.72-2.65-4.75-5.36-4.53-2.75.22-4.81,2.66-4.57,5.4.24,2.72,2.65,4.75,5.36,4.53h0Z"/>
    <path class="cls-2" d="M694.31,301.76c-.72.57-1.62.94-2.62,1.02-.62.05-1.22-.01-1.78-.18v-9.38c.32-.1.65-.16.99-.19,1.18-.1,2.3.23,3.19.86,1.16.8,1.96,2.1,2.08,3.62.14,1.71-.6,3.28-1.86,4.25Z"/>
    <path class="cls-2" d="M580.41,268.37h-9.05c.67-1.65,2.22-2.85,4.12-3.01,2.19-.18,4.15,1.08,4.93,3.01Z"/>
    <path class="cls-2" d="M688.63,265.25c2.69-.25,4.62-2.56,4.4-5.25-.23-2.72-2.57-4.68-5.3-4.43-2.69.25-4.63,2.56-4.4,5.25.23,2.72,2.58,4.68,5.3,4.43h0Z"/>
    <path class="cls-2" d="M610.46,234.48c2.73-.21,4.72-2.53,4.49-5.25-.22-2.69-2.52-4.66-5.2-4.46-2.73.21-4.72,2.53-4.49,5.25.22,2.69,2.52,4.66,5.2,4.46h0Z"/>
    <path class="cls-2" d="M647.88,231.21c2.69-.25,4.62-2.56,4.4-5.25-.23-2.73-2.58-4.68-5.3-4.43-2.69.25-4.62,2.56-4.4,5.25.23,2.73,2.58,4.68,5.3,4.43h0Z"/>
    <path class="cls-2" d="M586.65,249.1c2.62-.24,4.59-2.61,4.34-5.23-.24-2.62-2.61-4.59-5.23-4.34-2.62.24-4.59,2.61-4.34,5.23.24,2.62,2.61,4.59,5.23,4.34h0Z"/>
    <path class="cls-2" d="M673.92,241.44c2.59-.22,4.56-2.54,4.37-5.14-.19-2.61-2.56-4.63-5.18-4.41-2.59.22-4.56,2.54-4.37,5.14.19,2.61,2.56,4.63,5.18,4.41h0Z"/>
    <path class="cls-2" d="M575.33,262.41c2.65-.22,4.55-2.48,4.31-5.12-.24-2.61-2.49-4.48-5.1-4.25-2.61.23-4.49,2.47-4.27,5.08.22,2.61,2.45,4.5,5.06,4.29h0Z"/>
    <path class="cls-2" d="M598.04,235.38c2.6-.24,4.47-2.49,4.23-5.1-.24-2.6-2.49-4.47-5.1-4.23-2.6.24-4.47,2.49-4.23,5.1.24,2.6,2.49,4.47,5.1,4.23h0Z"/>
    <path class="cls-2" d="M694.66,314.5c-.55.31-1.19.51-1.87.57-1.06.09-2.06-.17-2.88-.68v-7.97c.61-.37,1.32-.61,2.09-.68.87-.08,1.7.08,2.43.43,1.44.69,2.48,2.1,2.63,3.84.16,1.92-.82,3.64-2.4,4.49Z"/>
    <path class="cls-2" d="M660.27,229.93c2.61-.2,4.53-2.45,4.31-5.04-.22-2.57-2.45-4.47-5-4.27-2.61.2-4.53,2.45-4.31,5.04.22,2.57,2.44,4.47,5,4.27h0Z"/>
    <path class="cls-2" d="M687.41,252.73c2.62-.19,4.55-2.42,4.35-5.01-.2-2.58-2.42-4.5-4.96-4.31-2.62.19-4.55,2.42-4.35,5.01.2,2.58,2.42,4.5,4.97,4.31h0Z"/>
    <path class="cls-2" d="M702.31,279.83c-2.47.21-4.31,2.38-4.1,4.85.21,2.48,2.37,4.32,4.83,4.13,2.51-.2,4.36-2.39,4.14-4.89-.22-2.47-2.4-4.3-4.87-4.08h0Z"/>
    <path class="cls-2" d="M701.28,267.33c-2.52.19-4.38,2.37-4.16,4.87.21,2.47,2.38,4.31,4.85,4.1,2.48-.2,4.32-2.37,4.13-4.83-.2-2.48-2.35-4.34-4.81-4.15h0Z"/>
    <path class="cls-2" d="M634.25,219.44c2.47-.22,4.29-2.4,4.08-4.87-.21-2.47-2.38-4.31-4.85-4.1-2.48.2-4.32,2.37-4.12,4.83.2,2.51,2.39,4.36,4.89,4.14h0Z"/>
    <path class="cls-2" d="M621.89,220.53c2.51-.22,4.34-2.42,4.1-4.93-.23-2.46-2.43-4.27-4.9-4.04-2.47.23-4.28,2.41-4.06,4.89.22,2.47,2.4,4.29,4.87,4.08h0Z"/>
    <path class="cls-2" d="M574.28,249.82c2.43-.23,4.25-2.43,4.02-4.84-.23-2.43-2.43-4.25-4.84-4.02-2.43.23-4.25,2.43-4.02,4.84.23,2.43,2.43,4.25,4.84,4.02h0Z"/>
    <path class="cls-2" d="M566.87,268.37h-6.63c.73-.84,1.77-1.4,2.95-1.49,1.43-.11,2.78.49,3.68,1.49Z"/>
    <path class="cls-2" d="M689.91,320.13c.75-1.02,1.93-1.71,3.29-1.8.54-.03,1.07.04,1.56.18,1.73.53,3.01,2.08,3.11,3.99.1,2-1.11,3.75-2.88,4.38-.39.15-.8.23-1.24.26-1.57.09-2.99-.63-3.84-1.8v-5.21Z"/>
    <path class="cls-2" d="M703.43,292.42c-2.45.2-4.26,2.35-4.03,4.8.23,2.45,2.39,4.24,4.84,3.98,2.42-.25,4.17-2.37,3.95-4.79-.23-2.42-2.33-4.19-4.76-3.99h0Z"/>
    <path class="cls-2" d="M686.38,239.94c2.44-.21,4.2-2.3,3.99-4.74-.21-2.44-2.3-4.2-4.74-3.99-2.44.21-4.2,2.3-3.99,4.74.21,2.44,2.3,4.2,4.74,3.99h0Z"/>
    <path class="cls-2" d="M672.79,228.54c2.44-.21,4.2-2.3,3.99-4.74-.21-2.44-2.3-4.2-4.74-3.99-2.44.21-4.2,2.3-3.99,4.74.21,2.44,2.3,4.2,4.74,3.99h0Z"/>
    <path class="cls-2" d="M585.38,236.22c2.42-.14,4.25-2.19,4.14-4.63-.11-2.45-2.2-4.32-4.67-4.18-2.42.14-4.25,2.19-4.14,4.63.11,2.45,2.2,4.32,4.67,4.18h0Z"/>
    <path class="cls-2" d="M609.24,221.54c2.45-.11,4.31-2.2,4.17-4.67-.14-2.42-2.19-4.25-4.63-4.13-2.45.11-4.32,2.2-4.17,4.67.14,2.42,2.19,4.25,4.63,4.13h0Z"/>
    <path class="cls-2" d="M646.68,218.23c2.45-.2,4.22-2.27,4.02-4.71-.2-2.45-2.27-4.22-4.71-4.02-2.45.2-4.22,2.27-4.02,4.71.2,2.45,2.27,4.22,4.71,4.02h0Z"/>
    <path class="cls-2" d="M700.92,263.69c2.44-.22,4.18-2.32,3.96-4.76-.22-2.44-2.32-4.18-4.76-3.96-2.44.22-4.18,2.32-3.96,4.77.22,2.44,2.32,4.18,4.76,3.96h0Z"/>
    <path class="cls-2" d="M704.59,305.1c-2.36.17-4.09,2.16-3.92,4.51.17,2.36,2.16,4.09,4.51,3.92,2.36-.17,4.09-2.16,3.92-4.51-.17-2.36-2.16-4.09-4.51-3.92h0Z"/>
    <path class="cls-2" d="M699.84,251.2c2.35-.22,4.02-2.25,3.8-4.6-.22-2.35-2.25-4.02-4.61-3.8-2.35.22-4.02,2.25-3.8,4.61.22,2.35,2.25,4.02,4.61,3.8h0Z"/>
    <path class="cls-2" d="M562.89,263.05c2.34-.25,4.02-2.3,3.8-4.63-.22-2.34-2.25-4.04-4.59-3.85-2.37.19-4.11,2.27-3.88,4.63.22,2.37,2.32,4.09,4.67,3.84h0Z"/>
    <path class="cls-2" d="M596.91,222.43c2.35-.22,4.03-2.24,3.81-4.6-.22-2.35-2.24-4.03-4.6-3.81-2.35.22-4.03,2.24-3.81,4.6.22,2.35,2.24,4.03,4.6,3.81h0Z"/>
    <path class="cls-2" d="M659.18,216.96c2.32-.2,4.02-2.19,3.84-4.5-.19-2.36-2.19-4.07-4.54-3.87-2.32.2-4.02,2.19-3.84,4.5.19,2.36,2.19,4.07,4.54,3.87h0Z"/>
    <path class="cls-2" d="M573.1,236.94c2.28-.18,3.92-2.11,3.72-4.38-.19-2.27-2.13-3.9-4.4-3.7-2.24.2-3.86,2.1-3.69,4.34.17,2.28,2.09,3.93,4.36,3.75h0Z"/>
    <path class="cls-2" d="M694.24,331.19c-2.28.19-3.91,2.12-3.71,4.39.19,2.24,2.1,3.87,4.33,3.7,2.28-.17,3.94-2.09,3.76-4.35-.18-2.28-2.1-3.92-4.37-3.74h0Z"/>
    <path class="cls-2" d="M685.22,227.11c2.28-.18,3.92-2.12,3.71-4.39-.2-2.23-2.13-3.85-4.37-3.66-2.24.19-3.86,2.11-3.68,4.35.19,2.24,2.1,3.88,4.33,3.7h0Z"/>
    <path class="cls-2" d="M561.73,250.47c2.18-.19,3.82-2.15,3.64-4.33-.18-2.18-2.13-3.83-4.31-3.66-2.18.17-3.84,2.11-3.68,4.29.16,2.21,2.15,3.89,4.35,3.69h0Z"/>
    <path class="cls-2" d="M705.68,317.64c-2.18.15-3.86,2.08-3.72,4.26.14,2.18,2.06,3.87,4.24,3.74,2.21-.13,3.92-2.09,3.76-4.3-.16-2.18-2.1-3.85-4.28-3.7h0Z"/>
    <path class="cls-2" d="M698.71,238.47c2.17-.21,3.82-2.2,3.6-4.36-.22-2.14-2.16-3.76-4.3-3.58-2.17.18-3.83,2.16-3.64,4.32.19,2.17,2.18,3.83,4.34,3.62h0Z"/>
    <path class="cls-2" d="M713.77,266.76c-2.14.18-3.78,2.09-3.64,4.25.13,2.16,2.09,3.85,4.27,3.7,2.16-.15,3.85-2.11,3.68-4.29-.16-2.16-2.14-3.84-4.31-3.66h0Z"/>
    <path class="cls-2" d="M714.83,279.25c-2.14.2-3.77,2.12-3.61,4.27.15,2.16,2.12,3.84,4.3,3.67,2.17-.17,3.84-2.15,3.65-4.32-.19-2.17-2.17-3.83-4.34-3.63h0Z"/>
    <path class="cls-2" d="M671.68,215.65c2.17-.2,3.82-2.19,3.61-4.35-.21-2.17-2.21-3.82-4.37-3.59-2.15.22-3.76,2.16-3.58,4.3.18,2.17,2.16,3.83,4.33,3.64h0Z"/>
    <path class="cls-2" d="M633.07,206.44c2.16-.17,3.84-2.15,3.65-4.32-.18-2.14-2.1-3.78-4.26-3.64-2.16.14-3.85,2.1-3.69,4.28.15,2.16,2.12,3.84,4.3,3.67h0Z"/>
    <path class="cls-2" d="M620.72,207.52c2.16-.15,3.84-2.12,3.67-4.3-.17-2.17-2.15-3.84-4.32-3.65-2.17.19-3.83,2.17-3.63,4.34.2,2.14,2.12,3.77,4.27,3.61h0Z"/>
    <path class="cls-2" d="M584.35,223.29c2.17-.18,3.83-2.16,3.64-4.33-.19-2.14-2.11-3.77-4.26-3.63-2.16.15-3.85,2.11-3.68,4.29.16,2.16,2.14,3.84,4.31,3.66h0Z"/>
    <path class="cls-2" d="M713.36,262.1c2.16-.19,3.71-2.04,3.52-4.2-.19-2.16-2.02-3.72-4.18-3.54-2.17.18-3.73,2.01-3.56,4.17.17,2.2,2.03,3.77,4.23,3.58h0Z"/>
    <path class="cls-2" d="M608.29,208.51c2.16-.2,3.69-2.05,3.5-4.22-.19-2.16-2.04-3.71-4.2-3.52-2.16.18-3.72,2.02-3.54,4.18.18,2.2,2.04,3.76,4.24,3.56h0Z"/>
    <path class="cls-2" d="M716,291.84c-2.17.17-3.75,1.99-3.59,4.14.16,2.21,2.01,3.79,4.2,3.61,2.17-.18,3.72-2.02,3.55-4.18-.18-2.17-2.01-3.74-4.16-3.57h0Z"/>
    <path class="cls-2" d="M645.63,205.22c2.13-.2,3.67-2.09,3.46-4.24-.21-2.13-2.09-3.67-4.24-3.46-2.13.21-3.67,2.09-3.46,4.24.2,2.13,2.09,3.67,4.24,3.46h0Z"/>
    <path class="cls-2" d="M595.73,209.45c2.08-.17,3.58-1.94,3.41-4.01-.17-2.08-1.92-3.59-3.99-3.43-2.09.16-3.6,1.9-3.46,3.97.15,2.12,1.93,3.65,4.03,3.47h0Z"/>
    <path class="cls-2" d="M550.34,263.62c2.06-.2,3.53-1.99,3.34-4.07-.19-2.07-1.98-3.55-4.05-3.36-2.07.19-3.56,1.96-3.38,4.03.18,2.11,1.98,3.6,4.1,3.4h0Z"/>
    <path class="cls-2" d="M717.04,304.5c-2.07.19-3.55,1.97-3.37,4.04.18,2.08,1.95,3.57,4.02,3.39,2.11-.17,3.61-1.97,3.41-4.09-.2-2.07-1.98-3.54-4.06-3.35h0Z"/>
    <path class="cls-2" d="M657.96,203.98c2.09-.15,3.63-1.89,3.48-3.95-.15-2.08-1.91-3.61-3.97-3.45-2.08.16-3.6,1.92-3.43,3.99.16,2.04,1.9,3.56,3.93,3.42h0Z"/>
    <path class="cls-2" d="M712.21,249.6c2.08-.17,3.59-1.94,3.41-4-.17-2.07-1.95-3.57-4.02-3.39-2.07.18-3.56,1.97-3.37,4.04.18,2.03,1.95,3.52,3.98,3.36h0Z"/>
    <path class="cls-2" d="M695.35,344.04c-2.01.17-3.53,1.94-3.38,3.95.15,2.05,1.95,3.59,4,3.41,2.02-.17,3.53-1.94,3.38-3.95-.15-2.05-1.95-3.59-4-3.41h0Z"/>
    <path class="cls-2" d="M706.71,330.48c-2,.19-3.5,2.02-3.31,4.01.19,2,2.02,3.5,4.01,3.31,2-.19,3.5-2.02,3.31-4.01-.19-2-2.02-3.51-4.01-3.31h0Z"/>
    <path class="cls-2" d="M572.03,224.06c2-.19,3.51-2.01,3.32-4-.19-2-2.01-3.51-4-3.32-2,.19-3.51,2.01-3.32,4,.19,2,2.01,3.51,4,3.32h0Z"/>
    <path class="cls-2" d="M560.64,237.65c2-.19,3.5-2.02,3.31-4.01-.19-2-2.02-3.5-4.01-3.31-2,.19-3.5,2.02-3.31,4.01.19,2,2.02,3.5,4.01,3.31h0Z"/>
    <path class="cls-2" d="M684.19,214.22c1.98-.21,3.46-2.02,3.26-3.99-.2-1.98-2-3.47-3.97-3.28-1.97.18-3.47,1.97-3.31,3.95.17,2,2.02,3.54,4.01,3.32h0Z"/>
    <path class="cls-2" d="M697.58,225.64c1.97-.18,3.47-1.98,3.31-3.95-.17-1.97-1.95-3.48-3.93-3.33-1.97.15-3.49,1.93-3.35,3.91.14,1.99,1.98,3.55,3.98,3.36h0Z"/>
    <path class="cls-2" d="M549.17,251.1c1.93-.16,3.39-1.86,3.24-3.79-.15-1.93-1.84-3.4-3.77-3.26-1.93.14-3.41,1.82-3.28,3.75.13,1.97,1.85,3.46,3.81,3.3h0Z"/>
    <path class="cls-2" d="M711.07,236.91c1.91-.12,3.4-1.85,3.27-3.77-.13-1.91-1.87-3.4-3.79-3.25-1.91.15-3.39,1.89-3.22,3.8.16,1.88,1.85,3.33,3.74,3.21h0Z"/>
    <path class="cls-2" d="M583.24,210.33c1.91-.17,3.37-1.93,3.18-3.84-.18-1.88-1.89-3.31-3.77-3.17-1.91.15-3.39,1.89-3.23,3.8s1.91,3.38,3.82,3.21h0Z"/>
    <path class="cls-2" d="M670.57,202.85c1.91-.18,3.37-1.93,3.18-3.84-.19-1.91-1.96-3.36-3.86-3.16-1.89.2-3.3,1.91-3.14,3.8.16,1.91,1.91,3.38,3.82,3.2h0Z"/>
    <path class="cls-2" d="M718.2,317.04c-1.91.14-3.39,1.87-3.24,3.79.15,1.88,1.83,3.34,3.73,3.22,1.91-.11,3.41-1.83,3.28-3.75-.12-1.91-1.85-3.4-3.77-3.26h0Z"/>
    <path class="cls-2" d="M727.42,278.74c-1.91.15-3.28,1.76-3.13,3.66.15,1.91,1.76,3.28,3.66,3.13,1.91-.15,3.28-1.76,3.13-3.66-.15-1.91-1.76-3.28-3.66-3.13h0Z"/>
    <path class="cls-2" d="M726.33,266.24c-1.91.15-3.28,1.76-3.13,3.66.15,1.91,1.76,3.28,3.66,3.13,1.91-.15,3.28-1.76,3.13-3.66-.15-1.91-1.76-3.28-3.66-3.13h0Z"/>
    <path class="cls-2" d="M619.6,194.61c1.91-.15,3.28-1.76,3.13-3.66-.15-1.91-1.76-3.28-3.66-3.13-1.91.15-3.28,1.76-3.13,3.66.15,1.91,1.76,3.28,3.66,3.13h0Z"/>
    <path class="cls-2" d="M632.1,193.51c1.91-.15,3.28-1.76,3.12-3.66-.16-1.91-1.76-3.28-3.66-3.12-1.91.15-3.28,1.76-3.12,3.66.15,1.91,1.76,3.28,3.66,3.12h0Z"/>
    <path class="cls-2" d="M607.1,195.66c1.84-.14,3.24-1.78,3.1-3.62-.14-1.84-1.77-3.24-3.62-3.1-1.84.14-3.24,1.77-3.1,3.62.14,1.84,1.78,3.24,3.62,3.1h0Z"/>
    <path class="cls-2" d="M728.47,291.27c-1.84.17-3.21,1.83-3.04,3.67.17,1.84,1.83,3.21,3.67,3.04,1.84-.17,3.21-1.83,3.04-3.67-.17-1.84-1.83-3.21-3.67-3.04h0Z"/>
    <path class="cls-2" d="M725.79,260.48c1.83-.16,3.24-1.87,3.04-3.68-.2-1.81-1.87-3.17-3.66-2.98-1.8.18-3.17,1.84-3.01,3.64.17,1.8,1.82,3.18,3.62,3.03h0Z"/>
    <path class="cls-2" d="M644.47,192.37c1.8-.17,3.18-1.82,3.02-3.62-.16-1.8-1.8-3.19-3.61-3.04-1.79.14-3.19,1.78-3.07,3.59.13,1.82,1.82,3.25,3.65,3.08h0Z"/>
    <path class="cls-2" d="M708.01,343.33c-1.8.05-3.23,1.62-3.16,3.46.06,1.8,1.64,3.22,3.48,3.14,1.8-.08,3.21-1.67,3.12-3.5-.09-1.77-1.62-3.15-3.44-3.1h0Z"/>
    <path class="cls-2" d="M696.43,212.76c1.82-.15,3.13-1.7,2.97-3.52-.15-1.82-1.7-3.13-3.52-2.97-1.82.15-3.13,1.7-2.97,3.52.15,1.82,1.7,3.13,3.52,2.97h0Z"/>
    <path class="cls-2" d="M559.49,224.74c1.82-.17,3.11-1.72,2.95-3.55-.16-1.82-1.72-3.11-3.55-2.95-1.82.17-3.11,1.72-2.95,3.55.17,1.82,1.72,3.11,3.55,2.95h0Z"/>
    <path class="cls-2" d="M537.77,264.2c1.76-.16,3.06-1.73,2.9-3.5-.16-1.76-1.73-3.07-3.5-2.9-1.76.16-3.06,1.73-2.9,3.5.16,1.77,1.73,3.07,3.5,2.9h0Z"/>
    <path class="cls-2" d="M729.61,303.92c-1.77.15-3.09,1.7-2.94,3.47s1.7,3.08,3.47,2.94c1.77-.15,3.09-1.7,2.94-3.47-.15-1.77-1.7-3.09-3.47-2.94h0Z"/>
    <path class="cls-2" d="M548.04,238.28c1.77-.14,3.1-1.68,2.96-3.45-.14-1.77-1.68-3.1-3.45-2.96-1.77.14-3.1,1.68-2.96,3.45.14,1.77,1.68,3.1,3.45,2.96h0Z"/>
    <path class="cls-2" d="M570.85,211.11c1.77-.14,3.09-1.69,2.95-3.46-.14-1.77-1.69-3.09-3.46-2.95-1.77.14-3.09,1.69-2.95,3.46.14,1.77,1.69,3.09,3.46,2.95h0Z"/>
    <path class="cls-2" d="M696.48,357.02c-1.77.15-3.08,1.71-2.93,3.47.15,1.77,1.7,3.08,3.47,2.94,1.77-.15,3.08-1.71,2.93-3.47s-1.7-3.08-3.47-2.93h0Z"/>
    <path class="cls-2" d="M719.24,329.84c-1.76.17-3.06,1.74-2.89,3.51.17,1.76,1.74,3.06,3.51,2.89,1.76-.17,3.06-1.74,2.89-3.51-.17-1.76-1.74-3.06-3.51-2.89h0Z"/>
    <path class="cls-2" d="M709.98,224.1c1.71-.12,3.05-1.66,2.95-3.39-.1-1.74-1.68-3.11-3.43-2.99-1.71.13-3.05,1.66-2.95,3.39.1,1.74,1.68,3.11,3.43,2.98h0Z"/>
    <path class="cls-2" d="M724.69,247.99c1.71-.14,3.04-1.69,2.92-3.41-.12-1.74-1.71-3.1-3.45-2.96-1.71.14-3.04,1.69-2.92,3.41.12,1.74,1.71,3.1,3.45,2.96h0Z"/>
    <path class="cls-2" d="M683.02,201.44c1.71-.15,3.03-1.7,2.9-3.42-.13-1.74-1.72-3.1-3.47-2.94-1.71.15-3.03,1.7-2.91,3.42.13,1.74,1.72,3.09,3.47,2.94h0Z"/>
    <path class="cls-2" d="M594.61,196.58c1.71-.14,3.04-1.69,2.92-3.41-.12-1.74-1.71-3.1-3.45-2.96-1.71.14-3.04,1.69-2.92,3.41.12,1.74,1.71,3.1,3.45,2.96h0Z"/>
    <path class="cls-2" d="M656.92,191.13c1.71-.14,3.04-1.69,2.92-3.41-.12-1.74-1.71-3.1-3.45-2.96-1.71.14-3.04,1.68-2.92,3.41.11,1.74,1.7,3.1,3.45,2.96h0Z"/>
    <path class="cls-2" d="M730.66,316.47c-1.61.17-2.82,1.62-2.7,3.23.12,1.63,1.62,2.9,3.25,2.76,1.63-.14,2.89-1.64,2.73-3.27-.16-1.63-1.66-2.88-3.29-2.71h0Z"/>
    <path class="cls-2" d="M536.64,251.66c1.63-.14,2.89-1.64,2.74-3.27-.15-1.63-1.66-2.88-3.29-2.72-1.61.16-2.82,1.61-2.7,3.22.12,1.63,1.61,2.9,3.25,2.76h0Z"/>
    <path class="cls-2" d="M582.12,197.43c1.64-.15,2.82-1.56,2.67-3.2-.15-1.64-1.56-2.82-3.2-2.67s-2.82,1.56-2.67,3.21c.15,1.64,1.56,2.82,3.2,2.67h0Z"/>
    <path class="cls-2" d="M669.44,189.79c1.64-.16,2.81-1.58,2.65-3.22-.16-1.64-1.58-2.81-3.22-2.65-1.64.16-2.81,1.58-2.65,3.22.16,1.64,1.58,2.81,3.22,2.65h0Z"/>
    <path class="cls-2" d="M723.61,235.25c1.64-.16,2.81-1.57,2.65-3.22-.15-1.64-1.57-2.81-3.22-2.66-1.64.16-2.81,1.57-2.65,3.22.15,1.64,1.57,2.81,3.22,2.66h0Z"/>
    <path class="cls-2" d="M740,278.21c-1.52.09-2.72,1.45-2.64,3,.08,1.55,1.49,2.78,3.06,2.66,1.53-.12,2.7-1.49,2.6-3.03-.11-1.52-1.47-2.71-3.01-2.62h0Z"/>
    <path class="cls-2" d="M709.02,356.3c-1.53.11-2.71,1.48-2.61,3.03.1,1.56,1.53,2.77,3.09,2.62,1.53-.14,2.69-1.53,2.56-3.06-.13-1.53-1.51-2.7-3.04-2.58h0Z"/>
    <path class="cls-2" d="M738.84,265.72c-1.53.14-2.7,1.52-2.57,3.05.12,1.56,1.56,2.76,3.11,2.59,1.53-.17,2.68-1.57,2.53-3.09-.15-1.53-1.54-2.69-3.07-2.55h0Z"/>
    <path class="cls-2" d="M558.27,211.82c1.55-.08,2.78-1.5,2.65-3.06-.12-1.53-1.5-2.7-3.04-2.59-1.52.11-2.71,1.48-2.62,3.02.09,1.52,1.45,2.72,3,2.64h0Z"/>
    <path class="cls-2" d="M695.25,200c1.55-.08,2.78-1.5,2.65-3.06-.13-1.53-1.5-2.7-3.04-2.59-1.53.11-2.71,1.48-2.61,3.02.1,1.53,1.46,2.72,3,2.63h0Z"/>
    <path class="cls-2" d="M618.52,181.53c1.53-.16,2.69-1.55,2.54-3.08-.14-1.53-1.53-2.69-3.06-2.57-1.56.13-2.75,1.57-2.58,3.12.17,1.53,1.57,2.68,3.1,2.52h0Z"/>
    <path class="cls-2" d="M630.95,180.45c1.56-.11,2.76-1.55,2.6-3.1-.15-1.53-1.55-2.69-3.08-2.54-1.53.14-2.69,1.53-2.56,3.06.13,1.53,1.5,2.7,3.04,2.59h0Z"/>
    <path class="cls-2" d="M546.93,225.41c1.53-.12,2.7-1.5,2.6-3.03-.11-1.56-1.54-2.76-3.09-2.61-1.53.15-2.69,1.54-2.55,3.07.14,1.53,1.52,2.7,3.05,2.57h0Z"/>
    <path class="cls-2" d="M720.39,342.72c-1.53.14-2.69,1.52-2.57,3.06.12,1.53,1.5,2.7,3.04,2.59,1.56-.11,2.76-1.54,2.61-3.1-.15-1.54-1.55-2.69-3.07-2.55h0Z"/>
    <path class="cls-2" d="M708.83,211.19c1.57-.11,2.7-1.41,2.59-2.98-.12-1.57-1.43-2.69-3-2.56-1.54.13-2.65,1.41-2.55,2.94.1,1.57,1.4,2.72,2.96,2.61h0Z"/>
    <path class="cls-2" d="M606.01,182.54c1.53-.14,2.62-1.46,2.47-3-.14-1.53-1.46-2.62-2.99-2.47-1.53.14-2.62,1.46-2.47,3,.14,1.53,1.46,2.61,3,2.47h0Z"/>
    <path class="cls-2" d="M741.06,290.8c-1.54.12-2.64,1.43-2.52,2.96.13,1.53,1.43,2.64,2.96,2.52,1.53-.12,2.64-1.43,2.52-2.96-.13-1.54-1.43-2.64-2.96-2.52h0Z"/>
    <path class="cls-2" d="M738.25,258.92c1.47-.13,2.6-1.45,2.48-2.93-.11-1.48-1.43-2.61-2.91-2.5-1.51.11-2.66,1.47-2.52,2.97.14,1.48,1.47,2.59,2.95,2.46h0Z"/>
    <path class="cls-2" d="M643.35,179.25c1.47-.15,2.57-1.5,2.43-2.98-.14-1.48-1.48-2.58-2.96-2.45s-2.59,1.46-2.47,2.94c.12,1.51,1.5,2.64,3,2.49h0Z"/>
    <path class="cls-2" d="M731.82,329.26c-1.43.12-2.54,1.42-2.46,2.86.08,1.45,1.42,2.61,2.89,2.52,1.46-.1,2.61-1.44,2.5-2.9-.11-1.46-1.46-2.6-2.92-2.48h0Z"/>
    <path class="cls-2" d="M697.6,369.87c-1.46.12-2.6,1.48-2.46,2.93.13,1.43,1.43,2.54,2.87,2.45,1.45-.09,2.61-1.43,2.5-2.9-.1-1.46-1.45-2.6-2.91-2.48h0Z"/>
    <path class="cls-2" d="M569.76,198.25c1.46-.14,2.59-1.5,2.44-2.96-.15-1.46-1.53-2.58-2.97-2.41-1.44.16-2.52,1.48-2.4,2.91.12,1.46,1.48,2.59,2.94,2.46h0Z"/>
    <path class="cls-2" d="M535.53,238.86c1.46-.13,2.59-1.49,2.45-2.94-.14-1.43-1.44-2.53-2.88-2.43-1.46.1-2.61,1.44-2.49,2.91.11,1.46,1.47,2.6,2.93,2.47h0Z"/>
    <path class="cls-2" d="M722.37,222.45c1.45-.07,2.54-1.26,2.5-2.71-.04-1.48-1.25-2.62-2.73-2.56-1.49.05-2.61,1.27-2.54,2.75.06,1.48,1.29,2.6,2.77,2.52h0Z"/>
    <path class="cls-2" d="M681.74,188.4c1.49-.05,2.61-1.27,2.54-2.75-.06-1.48-1.29-2.6-2.77-2.52-1.45.07-2.54,1.26-2.5,2.71.04,1.49,1.25,2.62,2.73,2.56h0Z"/>
    <path class="cls-2" d="M742.22,303.44c-1.49.1-2.56,1.33-2.43,2.81.12,1.45,1.34,2.49,2.79,2.38,1.45-.11,2.5-1.33,2.4-2.77-.11-1.46-1.31-2.52-2.75-2.42h0Z"/>
    <path class="cls-2" d="M525.2,264.68c1.45-.13,2.48-1.35,2.36-2.8-.12-1.45-1.34-2.49-2.78-2.38-1.49.11-2.53,1.36-2.39,2.84.14,1.44,1.37,2.46,2.82,2.33h0Z"/>
    <path class="cls-2" d="M593.51,183.49c1.44-.14,2.46-1.37,2.33-2.82-.13-1.45-1.36-2.47-2.8-2.35-1.48.12-2.52,1.38-2.37,2.87.15,1.44,1.39,2.45,2.84,2.31h0Z"/>
    <path class="cls-2" d="M655.67,178.02c1.44-.07,2.55-1.29,2.46-2.72-.09-1.41-1.28-2.49-2.67-2.43-1.44.07-2.55,1.29-2.46,2.72.08,1.41,1.28,2.49,2.67,2.43h0Z"/>
    <path class="cls-2" d="M737.08,246.28c1.44-.09,2.52-1.34,2.41-2.77-.11-1.4-1.33-2.46-2.72-2.37-1.44.09-2.52,1.34-2.41,2.77.11,1.4,1.33,2.46,2.72,2.37h0Z"/>
    <path class="cls-2" d="M743.25,315.98c-1.3.11-2.31,1.32-2.18,2.62.13,1.27,1.3,2.25,2.57,2.14,1.3-.1,2.31-1.32,2.18-2.62-.13-1.27-1.3-2.25-2.57-2.14h0Z"/>
    <path class="cls-2" d="M721.49,355.66c-1.27.14-2.24,1.32-2.13,2.58.11,1.3,1.34,2.31,2.63,2.17,1.27-.14,2.24-1.32,2.13-2.58-.11-1.3-1.34-2.31-2.63-2.17h0Z"/>
    <path class="cls-2" d="M580.92,184.38c1.3-.08,2.32-1.29,2.21-2.59-.11-1.27-1.27-2.26-2.55-2.18-1.3.09-2.32,1.29-2.21,2.59.11,1.27,1.27,2.26,2.55,2.17h0Z"/>
    <path class="cls-2" d="M524.09,252.14c1.27-.1,2.26-1.26,2.18-2.54-.08-1.3-1.28-2.33-2.58-2.22-1.27.1-2.26,1.26-2.18,2.54.08,1.3,1.28,2.33,2.58,2.22h0Z"/>
    <path class="cls-2" d="M545.78,212.47c1.3-.09,2.32-1.3,2.2-2.6-.11-1.27-1.28-2.26-2.55-2.17-1.3.09-2.32,1.3-2.2,2.6.11,1.27,1.28,2.26,2.55,2.17h0Z"/>
    <path class="cls-2" d="M668.27,176.68c1.29-.12,2.24-1.27,2.11-2.56-.13-1.29-1.29-2.23-2.58-2.09-1.26.14-2.18,1.26-2.07,2.52.11,1.29,1.25,2.25,2.54,2.13h0Z"/>
    <path class="cls-2" d="M736,233.55c1.29-.09,2.26-1.23,2.15-2.52-.11-1.29-1.25-2.25-2.54-2.13-1.26.12-2.2,1.22-2.12,2.48.08,1.29,1.21,2.27,2.5,2.17h0Z"/>
    <path class="cls-2" d="M707.75,198.41c1.29-.1,2.26-1.24,2.15-2.53s-1.26-2.25-2.54-2.13c-1.29.12-2.24,1.28-2.11,2.56.13,1.26,1.24,2.19,2.5,2.09h0Z"/>
    <path class="cls-2" d="M710.2,369.13c-1.29.06-2.28,1.18-2.2,2.48.08,1.29,1.21,2.27,2.5,2.18,1.29-.09,2.26-1.23,2.16-2.52-.1-1.26-1.19-2.21-2.46-2.14h0Z"/>
    <path class="cls-2" d="M534.42,225.95c1.28-.12,2.17-1.2,2.05-2.48-.12-1.28-1.2-2.17-2.48-2.05-1.28.12-2.17,1.2-2.05,2.48.12,1.28,1.2,2.17,2.48,2.05h0Z"/>
    <path class="cls-2" d="M721.3,209.6c1.29-.09,2.21-1.15,2.12-2.43-.09-1.29-1.15-2.21-2.43-2.12-1.29.09-2.21,1.15-2.12,2.43.09,1.29,1.15,2.21,2.43,2.12h0Z"/>
    <path class="cls-2" d="M557.21,198.93c1.28-.11,2.19-1.18,2.08-2.46-.11-1.28-1.18-2.19-2.46-2.08-1.28.11-2.19,1.18-2.08,2.46.11,1.28,1.18,2.19,2.46,2.08h0Z"/>
    <path class="cls-2" d="M732.92,342.18c-1.28.12-2.17,1.2-2.05,2.48.12,1.28,1.2,2.17,2.49,2.05,1.28-.12,2.17-1.2,2.05-2.48-.12-1.28-1.2-2.17-2.48-2.05h0Z"/>
    <path class="cls-2" d="M694.22,186.95c1.28-.13,2.16-1.22,2.03-2.5-.13-1.28-1.22-2.16-2.5-2.03-1.28.13-2.16,1.22-2.03,2.5.13,1.28,1.22,2.16,2.5,2.03h0Z"/>
    <path class="cls-2" d="M648.84,403.58c.39.32.9.5,1.45.47.48-.02.91-.19,1.25-.47h-2.7Z"/>
    <path class="cls-2" d="M635.64,403.58c.26.99,1.19,1.66,2.26,1.56.93-.08,1.65-.72,1.86-1.56h-4.12Z"/>
    <path class="cls-2" d="M752.34,277.82c-1.19.1-2.05,1.11-1.96,2.3.09,1.23,1.14,2.1,2.36,1.98,1.19-.12,2.03-1.14,1.92-2.34-.11-1.19-1.13-2.04-2.32-1.94h0Z"/>
    <path class="cls-2" d="M627.4,403.58c.03.1.05.21.06.32.1,1.2-.76,2.2-1.96,2.28-1.16.08-2.13-.77-2.23-1.93-.02-.23,0-.46.05-.67h4.08Z"/>
    <path class="cls-2" d="M629.8,167.23c1.2-.09,2.05-1.1,1.94-2.29-.1-1.16-1.09-1.99-2.25-1.9-1.2.09-2.05,1.1-1.94,2.29.11,1.16,1.09,1.99,2.25,1.9h0Z"/>
    <path class="cls-2" d="M751.65,269.56c1.16-.12,1.98-1.11,1.87-2.28-.1-1.19-1.12-2.03-2.32-1.91-1.16.12-1.97,1.11-1.87,2.27.1,1.2,1.12,2.03,2.32,1.91h0Z"/>
    <path class="cls-2" d="M617.29,168.32c1.17-.09,2.02-1.05,1.95-2.21-.07-1.21-1.06-2.08-2.25-1.99-1.17.09-2.02,1.05-1.96,2.21.07,1.2,1.06,2.08,2.25,1.99h0Z"/>
    <path class="cls-2" d="M698.78,382.95c-1.2.09-2.06,1.09-1.95,2.28.1,1.16,1.08,2,2.24,1.92,1.2-.09,2.06-1.09,1.95-2.28-.1-1.16-1.08-2-2.24-1.92h0Z"/>
    <path class="cls-2" d="M744.4,328.79c-1.14.07-2.03,1.12-1.93,2.25.1,1.11,1.1,1.96,2.21,1.89,1.14-.07,2.03-1.11,1.93-2.25-.1-1.11-1.1-1.96-2.21-1.89h0Z"/>
    <path class="cls-2" d="M750.51,257.2c1.14-.09,2.01-1.14,1.9-2.28-.11-1.11-1.12-1.95-2.23-1.86-1.14.09-2.01,1.14-1.9,2.28.11,1.11,1.13,1.95,2.23,1.86h0Z"/>
    <path class="cls-2" d="M753.41,290.39c-1.11.11-1.95,1.12-1.87,2.23.09,1.14,1.14,2.02,2.27,1.9,1.11-.11,1.95-1.12,1.87-2.23-.09-1.14-1.14-2.02-2.27-1.9h0Z"/>
    <path class="cls-2" d="M568.6,185.14c1.11-.09,1.96-1.1,1.89-2.21-.07-1.14-1.11-2.03-2.25-1.93-1.11.1-1.96,1.1-1.89,2.21.07,1.14,1.11,2.03,2.25,1.93h0Z"/>
    <path class="cls-2" d="M604.79,169.39c1.11-.07,1.98-1.06,1.93-2.17-.05-1.14-1.08-2.05-2.22-1.97-1.11.07-1.98,1.06-1.93,2.17.05,1.13,1.08,2.04,2.22,1.97h0Z"/>
    <path class="cls-2" d="M522.88,239.34c1.13-.03,2.06-1.05,2-2.19-.06-1.1-1.04-1.99-2.15-1.96-1.13.03-2.06,1.05-2,2.19.06,1.1,1.04,1.99,2.15,1.96h0Z"/>
    <path class="cls-2" d="M642.12,166.12c1.11-.07,1.98-1.06,1.93-2.17-.05-1.14-1.08-2.05-2.22-1.97-1.11.07-1.98,1.06-1.93,2.17.05,1.13,1.08,2.04,2.22,1.97h0Z"/>
    <path class="cls-2" d="M680.73,175.28c1.11-.09,1.96-1.12,1.84-2.23-.12-1.08-1.1-1.9-2.19-1.81-1.11.09-1.96,1.12-1.84,2.23.12,1.08,1.1,1.9,2.19,1.81h0Z"/>
    <path class="cls-2" d="M734.91,220.74c1.08-.09,1.91-1.07,1.85-2.15-.07-1.11-1.09-1.98-2.2-1.88-1.08.09-1.91,1.07-1.85,2.16.07,1.11,1.09,1.98,2.2,1.88h0Z"/>
    <path class="cls-2" d="M614.82,405.02c.09,1.11-.69,2.02-1.82,2.1-1.08.08-1.97-.68-2.08-1.76-.07-.73.24-1.38.78-1.78.28-.2.62-.33,1-.36.5-.05.97.09,1.33.36.44.31.74.82.79,1.44Z"/>
    <path class="cls-2" d="M592.31,170.33c1.05-.08,1.86-1.04,1.76-2.09-.09-1.02-1.01-1.81-2.03-1.75-1.05.06-1.88,1-1.81,2.06.07,1.05,1.02,1.87,2.07,1.78h0Z"/>
    <path class="cls-2" d="M512.76,265.1c1.06-.07,1.87-1.01,1.79-2.07-.08-1.06-1.03-1.86-2.08-1.77-1.02.09-1.81,1-1.76,2.02.06,1.06.99,1.88,2.05,1.81h0Z"/>
    <path class="cls-2" d="M673.9,401.14c.37.34.88.54,1.41.5.96-.07,1.74-.86,1.8-1.81l-3.21,1.31Z"/>
    <path class="cls-2" d="M749.42,244.55c1.05-.09,1.85-1.05,1.75-2.1-.1-1.05-1.07-1.84-2.12-1.73-1.02.11-1.79,1.04-1.71,2.06.08,1.05,1.03,1.86,2.09,1.77h0Z"/>
    <path class="cls-2" d="M754.5,303.03c-1.02.11-1.79,1.03-1.72,2.06.08,1.05,1.03,1.86,2.08,1.78,1.06-.09,1.85-1.05,1.75-2.1-.1-1.06-1.06-1.84-2.12-1.73h0Z"/>
    <path class="cls-2" d="M654.61,164.83c1.01-.07,1.82-1.01,1.74-2.03-.08-.99-.97-1.77-1.97-1.72-1.01.04-1.84.97-1.78,1.99.05,1.01.99,1.83,2.01,1.76h0Z"/>
    <path class="cls-2" d="M734.14,355.14c-1.01.06-1.75.86-1.71,1.85.04,1.05.87,1.81,1.89,1.75,1.01-.06,1.75-.86,1.71-1.85-.04-1.05-.86-1.81-1.89-1.75h0Z"/>
    <path class="cls-2" d="M720.16,196.79c1.04-.06,1.78-.9,1.7-1.93-.07-1.01-.89-1.73-1.89-1.67-1.04.06-1.78.9-1.71,1.93.08,1.01.89,1.73,1.89,1.67h0Z"/>
    <path class="cls-2" d="M533.19,212.98c1.05-.06,1.79-.89,1.71-1.92-.07-1.01-.89-1.73-1.88-1.68-1.05.06-1.79.89-1.71,1.92.07,1.01.89,1.73,1.88,1.68h0Z"/>
    <path class="cls-2" d="M544.68,199.55c1.01-.09,1.71-.91,1.64-1.91-.07-1.04-.92-1.77-1.95-1.68-1.01.09-1.71.91-1.64,1.91.07,1.04.92,1.77,1.95,1.68h0Z"/>
    <path class="cls-2" d="M722.68,368.73c-1.01.08-1.72.9-1.65,1.9.07,1.04.91,1.77,1.95,1.69,1.01-.08,1.72-.9,1.65-1.9-.07-1.04-.91-1.77-1.95-1.69h0Z"/>
    <path class="cls-2" d="M706.62,185.38c1.01-.08,1.72-.9,1.65-1.9-.07-1.04-.91-1.77-1.95-1.69-1.01.08-1.72.9-1.65,1.9.07,1.04.91,1.77,1.95,1.69h0Z"/>
    <path class="cls-2" d="M521.78,226.48c.93-.03,1.69-.89,1.64-1.83-.06-.9-.87-1.63-1.78-1.6-.93.03-1.7.89-1.64,1.83.05.9.87,1.63,1.78,1.6h0Z"/>
    <path class="cls-2" d="M600.21,404.56c-.9.09-1.61.93-1.54,1.84.07.93.95,1.67,1.88,1.57.9-.09,1.6-.93,1.54-1.84-.07-.93-.95-1.67-1.88-1.57h0Z"/>
    <path class="cls-2" d="M687.53,396.92c-.9.08-1.62.91-1.56,1.82.05.93.92,1.68,1.86,1.6.9-.08,1.62-.91,1.56-1.82-.05-.93-.92-1.68-1.86-1.6h0Z"/>
    <path class="cls-2" d="M711.3,382.25c-.93.06-1.68.93-1.59,1.86.08.9.91,1.61,1.82,1.56.93-.06,1.68-.93,1.59-1.86-.08-.9-.91-1.61-1.82-1.56h0Z"/>
    <path class="cls-2" d="M511.66,252.55c.93-.05,1.68-.92,1.6-1.85-.07-.9-.9-1.62-1.81-1.57-.93.05-1.68.92-1.61,1.85.07.9.9,1.62,1.81,1.57h0Z"/>
    <path class="cls-2" d="M733.72,207.86c.96-.06,1.63-.82,1.54-1.78-.08-.92-.83-1.56-1.75-1.48-.93.07-1.57.81-1.5,1.73.06.93.8,1.58,1.71,1.53h0Z"/>
    <path class="cls-2" d="M579.73,171.13c.96-.05,1.63-.81,1.56-1.76-.07-.92-.82-1.56-1.74-1.5-.93.06-1.58.8-1.52,1.72.06.93.79,1.59,1.7,1.54h0Z"/>
    <path class="cls-2" d="M667.16,163.48c.91-.1,1.52-.87,1.43-1.8-.09-.92-.86-1.54-1.78-1.45-.92.09-1.55.84-1.47,1.76.08.95.87,1.6,1.82,1.49h0Z"/>
    <path class="cls-2" d="M748.3,231.77c.92-.08,1.56-.83,1.49-1.75-.07-.92-.81-1.57-1.73-1.51-.93.06-1.58.79-1.53,1.71.05.96.82,1.63,1.77,1.55h0Z"/>
    <path class="cls-2" d="M745.54,341.72c-.96.06-1.62.84-1.53,1.79.09.92.84,1.54,1.76,1.47.92-.08,1.56-.83,1.49-1.75-.07-.92-.81-1.57-1.73-1.51h0Z"/>
    <path class="cls-2" d="M755.65,315.66c-.92.08-1.56.82-1.5,1.74.07.96.85,1.61,1.8,1.51.92-.09,1.54-.86,1.45-1.78-.08-.92-.84-1.55-1.76-1.47h0Z"/>
    <path class="cls-2" d="M556.08,185.79c.92-.09,1.55-.84,1.47-1.76-.08-.92-.82-1.56-1.74-1.49-.96.07-1.61.85-1.51,1.8.09.92.86,1.54,1.78,1.45h0Z"/>
    <path class="cls-2" d="M692.95,173.82c.93-.04,1.61-.76,1.58-1.67-.03-.97-.78-1.65-1.73-1.59-.93.06-1.58.79-1.53,1.71.05.93.78,1.6,1.69,1.56h0Z"/>
    <path class="cls-2" d="M510.57,239.74c.73-.05,1.34-.74,1.29-1.49-.04-.73-.73-1.34-1.47-1.31-.73.03-1.35.7-1.33,1.45.02.76.74,1.41,1.51,1.35h0Z"/>
    <path class="cls-2" d="M638.68,414.09c-.77.06-1.38.81-1.28,1.57.09.73.81,1.3,1.54,1.22.74-.08,1.32-.79,1.25-1.52-.07-.74-.77-1.33-1.5-1.27h0Z"/>
    <path class="cls-2" d="M651.22,413c-.76.03-1.4.77-1.32,1.53.07.74.77,1.32,1.51,1.26.73-.06,1.33-.75,1.29-1.49-.05-.73-.73-1.34-1.47-1.31h0Z"/>
    <path class="cls-2" d="M699.93,396.15c-.73.04-1.34.73-1.31,1.47.03.76.77,1.4,1.53,1.33.74-.07,1.32-.77,1.27-1.51-.06-.73-.75-1.33-1.49-1.29h0Z"/>
    <path class="cls-2" d="M587.76,405.96c-.73.06-1.33.76-1.28,1.5.05.77.8,1.38,1.56,1.29.73-.09,1.31-.8,1.23-1.53-.08-.74-.78-1.32-1.52-1.25h0Z"/>
    <path class="cls-2" d="M616.14,155.03c.75-.05,1.28-.66,1.22-1.41-.06-.75-.68-1.27-1.43-1.19-.72.07-1.22.65-1.18,1.37.04.75.64,1.29,1.39,1.24h0Z"/>
    <path class="cls-2" d="M628.66,153.93c.75-.06,1.26-.68,1.19-1.44-.07-.75-.7-1.25-1.45-1.16-.71.08-1.2.67-1.15,1.39.06.75.67,1.27,1.42,1.21h0Z"/>
    <path class="cls-2" d="M626.29,415.27c-.71.09-1.19.69-1.13,1.41.06.75.68,1.26,1.43,1.19.75-.07,1.25-.7,1.17-1.45-.08-.74-.71-1.24-1.47-1.15h0Z"/>
    <path class="cls-2" d="M747.11,218.95c.76-.03,1.3-.63,1.26-1.37-.04-.75-.64-1.29-1.39-1.24-.75.05-1.28.66-1.22,1.41.06.72.63,1.23,1.35,1.2h0Z"/>
    <path class="cls-2" d="M764.02,267.67c.75-.06,1.27-.67,1.2-1.42-.07-.75-.69-1.26-1.44-1.18-.72.07-1.21.66-1.16,1.38.05.75.65,1.28,1.4,1.22h0Z"/>
    <path class="cls-2" d="M663.65,412.01c-.72.07-1.22.66-1.17,1.37.04.76.65,1.29,1.4,1.23.75-.06,1.27-.67,1.21-1.42s-.68-1.26-1.44-1.19h0Z"/>
    <path class="cls-2" d="M756.85,328.47c-.76.02-1.31.61-1.28,1.36.03.75.63,1.3,1.38,1.26.76-.04,1.29-.65,1.23-1.4-.05-.72-.62-1.24-1.33-1.22h0Z"/>
    <path class="cls-2" d="M679.53,162.07c.76-.04,1.29-.65,1.23-1.4-.05-.72-.62-1.24-1.33-1.22-.76.02-1.31.61-1.28,1.36.03.76.63,1.3,1.38,1.26h0Z"/>
    <path class="cls-2" d="M567.45,171.88c.75-.07,1.26-.69,1.18-1.44-.08-.72-.66-1.21-1.38-1.17-.75.05-1.28.65-1.22,1.41.06.75.67,1.27,1.42,1.2h0Z"/>
    <path class="cls-2" d="M764.84,277.57c-.71.09-1.19.69-1.13,1.41.06.75.68,1.26,1.43,1.19.75-.07,1.25-.7,1.17-1.45-.08-.74-.72-1.24-1.47-1.14h0Z"/>
    <path class="cls-2" d="M603.64,156.07c.64-.03,1.19-.64,1.18-1.29-.01-.67-.65-1.26-1.33-1.22-.64.03-1.19.64-1.18,1.29.01.67.65,1.25,1.33,1.22h0Z"/>
    <path class="cls-2" d="M735.23,368.19c-.64.05-1.18.67-1.15,1.31.03.67.68,1.24,1.36,1.19.64-.05,1.18-.67,1.15-1.32-.03-.67-.68-1.24-1.36-1.19h0Z"/>
    <path class="cls-2" d="M762.91,255.29c.67-.03,1.24-.69,1.18-1.36-.05-.64-.67-1.18-1.32-1.15-.67.03-1.24.69-1.18,1.36.05.64.67,1.18,1.32,1.15h0Z"/>
    <path class="cls-2" d="M532.14,200.1c.64-.05,1.18-.67,1.15-1.32-.03-.67-.69-1.24-1.36-1.18-.64.05-1.18.67-1.15,1.32.03.67.69,1.24,1.36,1.18h0Z"/>
    <path class="cls-2" d="M719.03,183.75c.67-.03,1.24-.68,1.19-1.35-.05-.64-.66-1.18-1.31-1.15-.67.03-1.24.68-1.19,1.35.05.64.66,1.18,1.31,1.15h0Z"/>
    <path class="cls-2" d="M640.93,152.81c.64-.02,1.2-.61,1.21-1.26,0-.67-.62-1.27-1.3-1.25-.64.02-1.2.61-1.21,1.26,0,.67.62,1.27,1.3,1.25h0Z"/>
    <path class="cls-2" d="M766.02,290.11c-.64.04-1.19.65-1.16,1.3.02.67.67,1.25,1.35,1.2.64-.04,1.19-.65,1.16-1.3-.02-.67-.67-1.25-1.35-1.2h0Z"/>
    <path class="cls-2" d="M676.24,411.06c-.67.02-1.15.54-1.11,1.21.03.67.56,1.14,1.22,1.09.64-.04,1.09-.53,1.07-1.16-.01-.67-.53-1.16-1.19-1.13h0Z"/>
    <path class="cls-2" d="M613.85,416.52c-.66.06-1.1.61-1.03,1.28.07.66.63,1.09,1.3,1,.63-.08,1.04-.6.99-1.23-.06-.67-.59-1.12-1.26-1.05h0Z"/>
    <path class="cls-2" d="M723.81,381.72c-.63.06-1.07.56-1.05,1.19.03.67.55,1.15,1.21,1.11.67-.04,1.13-.57,1.08-1.23-.05-.67-.58-1.12-1.25-1.06h0Z"/>
    <path class="cls-2" d="M732.61,195.04c.67-.03,1.14-.56,1.09-1.22-.04-.67-.57-1.13-1.24-1.07-.63.05-1.08.55-1.05,1.18.02.67.54,1.15,1.2,1.11h0Z"/>
    <path class="cls-2" d="M746.44,354.72c-.63.07-1.06.57-1.02,1.21.04.67.57,1.13,1.23,1.08.67-.05,1.12-.58,1.06-1.25-.06-.67-.6-1.11-1.27-1.04h0Z"/>
    <path class="cls-2" d="M520.72,213.42c.66-.06,1.11-.6,1.04-1.27-.07-.66-.62-1.1-1.29-1.01-.63.08-1.05.59-1,1.23.05.67.58,1.12,1.25,1.06h0Z"/>
    <path class="cls-2" d="M705.41,172.24c.67-.02,1.15-.53,1.12-1.19-.03-.67-.55-1.14-1.21-1.1-.67.04-1.13.57-1.08,1.23.05.64.54,1.08,1.17,1.07h0Z"/>
    <path class="cls-2" d="M543.49,186.41c.67-.04,1.13-.57,1.08-1.23-.05-.67-.58-1.12-1.25-1.06-.63.06-1.08.56-1.05,1.19.03.67.55,1.14,1.21,1.1h0Z"/>
    <path class="cls-2" d="M767.1,302.78c-.57.05-1.02.6-.98,1.17.04.59.64,1.07,1.23.99.56-.08,1-.64.93-1.2-.07-.57-.62-1.01-1.18-.96h0Z"/>
    <path class="cls-2" d="M500.23,265.35c.57-.05,1.03-.58.99-1.15-.03-.56-.56-1.04-1.13-1.02-.59.02-1.09.6-1.03,1.2.06.57.6,1.02,1.17.97h0Z"/>
    <path class="cls-2" d="M761.84,242.62c.57-.05,1.03-.58.99-1.15-.03-.56-.56-1.04-1.13-1.01-.56.02-1.05.55-1.04,1.12.01.59.58,1.1,1.18,1.05h0Z"/>
    <path class="cls-2" d="M653.51,151.54c.56-.07,1.01-.63.95-1.19-.06-.57-.61-1.02-1.17-.97-.57.05-1.03.59-.99,1.16.04.59.63,1.08,1.22,1h0Z"/>
    <path class="cls-2" d="M591.14,156.99c.56-.04,1.04-.57,1.01-1.14-.03-.59-.6-1.09-1.2-1.02-.57.06-1.02.61-.97,1.17.05.57.59,1.03,1.16.99h0Z"/>
    <path class="cls-2" d="M757.92,341.31c-.57.01-.99.51-.92,1.07.08.6.46.86,1.05.87.57-.11.92-.44.87-1.04-.04-.6-.41-.91-1.01-.9h0Z"/>
    <path class="cls-2" d="M554.84,172.66c.6-.07.96-.38.96-.98,0-.6-.35-.94-.95-.97-.57-.03-1.03.44-.99,1.01.04.6.41.89.98.94h0Z"/>
    <path class="cls-2" d="M509.39,226.82c.57.01,1.01-.48.95-1.04-.06-.6-.44-.88-1.01-.91-.59.09-.94.41-.92,1.02.02.6.38.92.98.93h0Z"/>
    <path class="cls-2" d="M575.29,407.47c-.57.12-.91.45-.86,1.05.05.59.42.91,1.02.89.57-.01.99-.51.91-1.08-.09-.6-.47-.86-1.06-.86h0Z"/>
    <path class="cls-2" d="M712.47,395.48c-.6.04-.92.39-.93.98-.01.57.48,1.01,1.04.95.6-.06.88-.44.9-.92-.04-.64-.48-1.05-1.01-1.01h0Z"/>
    <path class="cls-2" d="M601.38,417.91c-.54.06-.88.43-.73.93.1.35.49.62.75.92.12-.01.25-.02.38-.04.19-.35.51-.7.53-1.06.03-.52-.38-.81-.92-.75h0Z"/>
    <path class="cls-2" d="M687.92,411.18c.04.54.39.89.9.77.35-.08.64-.46.95-.7,0-.13-.02-.25-.02-.38-.34-.2-.68-.54-1.04-.58-.52-.05-.83.34-.79.88h0Z"/>
    <path class="cls-2" d="M760.73,229.87c.35-.09.62-.48.93-.73-.01-.12-.02-.25-.03-.38-.35-.19-.69-.52-1.05-.54-.52-.04-.82.37-.77.91.05.54.42.88.92.75h0Z"/>
    <path class="cls-2" d="M499.13,252.76c.35-.09.63-.47.94-.72,0-.12-.02-.25-.03-.38-.35-.2-.68-.53-1.05-.56-.52-.04-.82.36-.78.9.04.54.4.89.91.76h0Z"/>
    <path class="cls-2" d="M745.99,206.14c.12,0,.25-.01.38-.02.21-.34.56-.66.6-1.02.06-.52-.33-.84-.87-.81-.53.03-.9.37-.79.89.08.35.45.65.68.97h0Z"/>
    <path class="cls-2" d="M768.4,315.19c-.12.01-.25.02-.38.03-.2.35-.53.68-.57,1.04-.05.52.35.83.89.79s.89-.4.77-.91c-.09-.35-.46-.64-.71-.95h0Z"/>
    <path class="cls-2" d="M691.86,160.54c.54-.04.89-.4.77-.91-.09-.35-.46-.63-.71-.95-.12,0-.25.02-.38.03-.2.35-.53.68-.57,1.04-.05.52.35.83.89.79h0Z"/>
    <path class="cls-2" d="M665.93,150.22c.58-.04.93-.44.77-.97-.1-.34-.53-.58-.81-.86-.12.01-.24.03-.35.04-.17.33-.47.66-.49,1.01-.03.52.35.83.89.79h0Z"/>
    <path class="cls-2" d="M578.5,158.01c.12-.01.25-.03.37-.04.18-.35.5-.7.52-1.07.02-.53-.39-.81-.93-.74-.54.06-.87.44-.72.94.1.35.49.61.76.91h0Z"/>
  </g>
  <g>
    <path class="cls-3" d="M185.31,163.66c-.15,2.74-.15,5.63-.15,8.53,0,5.18.3,15.68.3,18.58,0,12.48-5.63,15.38-14.62,15.38-5.48,0-8.07-1.07-9.9-11.27-1.07-5.94-1.22-13.55-1.22-19.49,0-18.73.91-37.45,1.52-57.25.46-13.25,3.05-18.88,13.09-18.88s14.16,5.94,14.16,11.72c0,3.65-1.52,13.85-2.44,30.45,15.68-.3,26.04-1.07,42.48-1.98.15-6.09.15-14.77.15-19.94,0-1.52,0-8.83.61-12.79.76-4.87,2.59-7.61,10.66-7.61,9.59,0,15.07,4.42,15.07,15.07,0,5.02-1.22,24.36-1.22,37.61,0,6.7.3,24.36.3,35.47s-.3,18.12-12.48,18.12c-10.35,0-13.25-4.87-13.25-13.4,0-3.35.46-13.55.46-20.86,0-5.63-.3-8.83-.3-8.83-15.07,0-25.58.46-43.24,1.37Z"/>
    <path class="cls-3" d="M313.97,204.92c-26.8,0-47.5-13.7-47.5-40.65,0-38.82,42.63-69.12,78.26-69.12,24.66,0,48.87,14.46,48.87,45.07,0,41.87-45.07,64.71-79.63,64.71ZM343.5,117.98c-23.45,0-49.63,23.6-49.63,46.28,0,12.79,8.22,17.81,21.77,17.81,25.12,0,52.07-17.51,52.07-41.11,0-14.62-10.35-22.99-24.21-22.99Z"/>
    <path class="cls-3" d="M433.18,175.99c0,3.35.15,11.57.15,13.25,0,12.79-9.44,16.59-16.6,16.59-5.63,0-12.03-2.28-12.03-13.7,0-5.18,1.37-19.34,1.37-26.49,0-2.44-.15-15.38-.3-22.23-.3-14.01-.76-15.23-.76-24.82,0-5.48.15-6.24,1.37-8.37,6.7-10.81,39.13-13.85,54.35-13.85,20.86,0,38.82,5.63,38.82,25.27,0,24.51-28.17,46.59-66.38,49.48v4.87ZM433.03,148.58c23.14-1.07,38.21-15.38,38.21-22.23,0-2.28-1.67-5.79-12.79-5.79-6.55,0-15.53,1.22-25.43,4.26v23.75Z"/>
    <path class="cls-3" d="M540.51,180.56c9.9,0,24.97-3.96,36.39-3.96,10.05,0,16.44,3.05,16.44,10.2s-6.85,11.88-17.66,13.25c-19.95,2.59-42.33,5.48-52.68,5.48-11.42,0-14.92-3.5-14.92-13.4,0-7.46,1.98-22.23,2.13-38.37.15-13.7.3-20.71.61-33.8.15-7.61,1.98-16.14,12.18-16.14,15.99-.15,18.42-.3,27.25-.91,21.16-1.52,29.54-3.35,33.34-3.35,6.55,0,10.66,5.33,10.66,10.96,0,7-6.39,12.64-12.94,13.09-19.49,1.37-37.76,2.44-45.52,2.74-.3,4.87-.46,9.9-.46,15.07,16.29-.46,35.17-3.81,42.17-3.81,8.07,0,11.72,4.57,11.72,9.9,0,8.07-8.22,11.57-14.31,12.79-7.77,1.52-26.19,2.28-40.19,4.42-.15,2.59-.3,5.33-.3,7.92s.15,5.33.3,7.92h5.79Z"/>
  </g>
  <path class="cls-2" d="M696.7,389.51c0,10.87-13.86,19.68-30.96,19.68l-430.99,1.37-110.87-.35,3.11.91c-15.05,0-35.34-4.71-37.92-14.13l-35.73-112.99c-3.3-12.04,11.28-23.05,30.5-23.05l188.4.81c.1,2.28.47,4.49,1.07,6.61H93.22c-19.22,0-33.79,11.01-30.5,23.05l31.07,95.85c2.58,9.43,15.45,16.31,30.51,16.31h487.4c.28-.2.62-.33,1-.36.5-.05.97.09,1.33.36h44.91c5.43,0,10.53-.89,14.96-2.44l3.21-1.31c7.76-3.57,12.8-9.38,12.8-15.93v-95.85c0-2.48-.73-4.86-2.05-7.05-1.34-2.22-3.3-4.25-5.73-5.99-2.64-1.9-5.85-3.47-9.45-4.6-4.14-1.31-8.81-2.04-13.74-2.04h-182.67c.53-1.84.87-3.76,1.01-5.73l33.48.14h3.76s7.96.05,7.96.05l4.99.02,7.39.03,5.19.02,7.71.04,4.37.02,9.51.04h1.59l34.63.15,6.06.03,4.66.02,9.65.04h1.87s11.52.06,11.52.06h.47l12.24.05h.28l12.16.05h.75s5.32.03,5.32.03c2.04,0,4.03.13,5.96.37.77.09,1.53.2,2.28.34,2.58.44,5.02,1.1,7.28,1.94h.01c2.65.98,5.04,2.2,7.12,3.61,3,2.05,5.32,4.5,6.73,7.21.83,1.58,1.35,3.26,1.52,4.99.04.4.06.81.06,1.22l.15,5.6.14,5.18.22,7.87.12,4.41.23,8.33.1,4.01.23,8.37.12,4.34.22,7.99.13,4.83.2,7.38.16,5.73.17,6.19.19,7.1.12,4.32h0s.4,14.75.4,14.75Z"/>
  <path class="cls-1" d="M614.03,403.58h-2.33c.28-.2.62-.33,1-.36.5-.05.97.09,1.33.36Z"/>
  <path class="cls-1" d="M677.11,399.83c-1.02.48-2.09.92-3.21,1.31l3.21-1.31Z"/>
  <g>
    <path class="cls-3" d="M307.34,271.49c0,6.47-4.23,8.86-9.18,8.86s-5.75-2.48-5.75-4.87c0-2.8.96-7.67.96-16.69,0-2.56-.08-16.13-.08-17.09-.08-6.87-.16-8.47-.16-9.1,0-5.51,5.19-6.23,9.1-6.31,3.51-.08,6.47-.16,9.98-.48,8.07-.72,13.82-1.84,16.93-1.84,2.56,0,6.79.72,6.79,5.67,0,6.31-6.71,6.87-9.66,6.95-10.06.24-10.86.32-19.41,1.52.08,2.96.24,6.95.24,10.06,6.79-.8,3.19-.4,8.71-1.44,6.55-1.28,9.74-1.6,11.42-1.6,3.35,0,8.07,1.2,8.07,5.27,0,3.67-3.75,5.19-8.63,6.15-4.07.8-17.97,2.88-19.81,3.2.08,2.32.48,9.74.48,11.74Z"/>
    <path class="cls-3" d="M362.69,280.44c-14.06,0-24.92-7.19-24.92-21.32,0-20.37,22.36-36.26,41.05-36.26,12.94,0,25.64,7.59,25.64,23.64,0,21.96-23.64,33.94-41.77,33.94ZM378.18,234.83c-12.3,0-26.04,12.38-26.04,24.28,0,6.71,4.31,9.34,11.42,9.34,13.18,0,27.31-9.18,27.31-21.56,0-7.67-5.43-12.06-12.7-12.06Z"/>
    <path class="cls-3" d="M425.22,265.26c0,1.68.16,5.19.16,6.23,0,3.43-1.6,9.34-8.94,9.34-5.19,0-6.07-2.96-6.07-6.71,0-3.43.72-10.7.72-14.54,0-1.76-.16-10.78-.16-11.42-.08-3.43-.4-9.1-.4-13.74,0-2.32.08-3.51.88-4.79,3.43-5.19,20.05-5.43,24.36-5.43,14.14,0,23.56,2.56,23.56,12.78,0,9.1-7.75,17.01-19.97,19.57,3.99,3.43,3.99,3.35,5.51,4.63,3.11,2.56,7.19,5.91,8.87,7.51,2.08,1.92,3.43,3.67,3.43,5.91,0,3.51-3.51,5.51-7.03,5.51-5.51,0-10.62-4.87-16.85-11.02-1.52-1.52-4.63-4.15-8.07-6.95v3.12ZM425.22,248.57c9.18-.72,18.85-5.59,18.85-9.74,0-2.08-2.4-2.4-5.27-2.4-3.75,0-8.23.56-13.58,1.92v10.22Z"/>
  </g>
  <g>
    <path class="cls-3" d="M141.21,365.02c-3.75,0-4.79-1.84-4.79-5.99,0-1.12.08-.96.24-3.12.72-7.91.8-13.82.8-18.45,0-8.07-.24-9.5-.24-14.3-11.42,1.44-3.75.48-12.7,1.76-1.6.24-2.32.32-2.95.32-3.43,0-5.19-2.4-5.19-4.95,0-2.79,1.92-5.43,3.43-6.63,1.92-1.6,4.31-2.24,7.67-2.64,3.51-.4,7.11-.56,13.58-1.04,10.22-.8,18.29-1.84,21.88-1.84,3.11,0,8.39.8,8.39,5.75,0,4.31-3.91,6.15-8.71,6.47-1.28.08-5.11-.08-11.66,1.12,0,2.32.08,5.91.08,7.59,0,2.96-.24,17.09-.32,23.64-.08,4.23-.64,12.3-6.79,12.3h-2.72Z"/>
    <path class="cls-3" d="M191.05,365.18c-14.06,0-24.92-7.19-24.92-21.32,0-20.37,22.36-36.26,41.05-36.26,12.94,0,25.64,7.59,25.64,23.64,0,21.96-23.64,33.94-41.77,33.94ZM206.54,319.58c-12.3,0-26.04,12.38-26.04,24.28,0,6.71,4.31,9.34,11.42,9.34,13.18,0,27.31-9.18,27.31-21.56,0-7.67-5.43-12.06-12.7-12.06Z"/>
    <path class="cls-3" d="M297.75,328.76c.56,4.95,2.79,18.93,4.39,28.51.08.56.16.88.16,1.6,0,3.75-2.48,5.99-7.19,5.99-4.07,0-8.55-1.68-8.55-6.95,0-1.6.4-4.31.4-6.55,0-2.64-.56-10.06-1.6-15.81-4.71,9.02-6.31,12.46-9.82,20.21-1.28,2.79-3.35,4.87-6.47,4.87s-5.19-2.08-6.47-4.87c-4.47-9.82-5.27-11.42-9.82-20.21-1.04,5.75-1.6,13.26-1.6,15.65,0,2-.16,4.79-.4,6.47-.8,5.51-3.51,7.19-7.67,7.19-4.87,0-7.27-2.24-7.27-5.99,0-1.2.24-2.24.4-3.27,1.6-9.82,3.27-19.01,4.15-26.83,1.52-13.02,1.12-12.38,1.92-14.7.56-1.76,2.24-6.63,7.83-6.63,3.27,0,4.55,1.68,5.51,3.35,1.6,2.88,3.91,9.74,7.11,15.73,1.44,2.71,3.35,6.47,6.31,11.74,5.67-10.54,4.15-7.59,6.31-11.74,3.11-5.99,5.51-12.86,7.11-15.73.88-1.6,2.24-3.35,5.43-3.35,4.15,0,6.87,2.96,8.07,6.71.56,1.76.56,3.83.56,3.99l1.2,10.62Z"/>
    <path class="cls-3" d="M331.3,365.18c-14.06,0-24.92-7.19-24.92-21.32,0-20.37,22.36-36.26,41.05-36.26,12.94,0,25.64,7.59,25.64,23.64,0,21.96-23.64,33.94-41.77,33.94ZM346.79,319.58c-12.3,0-26.04,12.38-26.04,24.28,0,6.71,4.31,9.34,11.42,9.34,13.18,0,27.31-9.18,27.31-21.56,0-7.67-5.43-12.06-12.7-12.06Z"/>
    <path class="cls-3" d="M393.83,350c0,1.68.16,5.19.16,6.23,0,3.43-1.6,9.34-8.94,9.34-5.19,0-6.07-2.96-6.07-6.71,0-3.43.72-10.7.72-14.54,0-1.76-.16-10.78-.16-11.42-.08-3.43-.4-9.1-.4-13.74,0-2.32.08-3.51.88-4.79,3.43-5.19,20.05-5.43,24.36-5.43,14.14,0,23.56,2.56,23.56,12.78,0,9.1-7.75,17.01-19.97,19.57,3.99,3.43,3.99,3.35,5.51,4.63,3.11,2.56,7.19,5.91,8.87,7.51,2.08,1.92,3.43,3.67,3.43,5.91,0,3.51-3.51,5.51-7.03,5.51-5.51,0-10.62-4.87-16.85-11.02-1.52-1.52-4.63-4.15-8.07-6.95v3.12ZM393.83,333.31c9.18-.72,18.85-5.59,18.85-9.74,0-2.08-2.4-2.4-5.27-2.4-3.75,0-8.23.56-13.58,1.92v10.22Z"/>
    <path class="cls-3" d="M448.62,350c0,1.68.16,5.19.16,6.23,0,3.43-1.6,9.34-8.94,9.34-5.19,0-6.07-2.96-6.07-6.71,0-3.43.72-10.7.72-14.54,0-1.76-.16-10.78-.16-11.42-.08-3.43-.4-9.1-.4-13.74,0-2.32.08-3.51.88-4.79,3.43-5.19,20.05-5.43,24.36-5.43,14.14,0,23.56,2.56,23.56,12.78,0,9.1-7.75,17.01-19.97,19.57,3.99,3.43,3.99,3.35,5.51,4.63,3.11,2.56,7.19,5.91,8.87,7.51,2.08,1.92,3.43,3.67,3.43,5.91,0,3.51-3.51,5.51-7.03,5.51-5.51,0-10.62-4.87-16.85-11.02-1.52-1.52-4.63-4.15-8.07-6.95v3.12ZM448.62,333.31c9.18-.72,18.85-5.59,18.85-9.74,0-2.08-2.4-2.4-5.27-2.4-3.75,0-8.23.56-13.58,1.92v10.22Z"/>
    <path class="cls-3" d="M509.64,365.18c-14.06,0-24.92-7.19-24.92-21.32,0-20.37,22.36-36.26,41.05-36.26,12.94,0,25.64,7.59,25.64,23.64,0,21.96-23.64,33.94-41.77,33.94ZM525.14,319.58c-12.3,0-26.04,12.38-26.04,24.28,0,6.71,4.31,9.34,11.42,9.34,13.18,0,27.31-9.18,27.31-21.56,0-7.67-5.43-12.06-12.7-12.06Z"/>
    <path class="cls-3" d="M620.34,350.24c-3.04,6.47-6.15,14.93-12.14,14.93-2.88,0-4.07-2-4.87-3.83-.88-2.08-3.91-9.74-5.75-13.9-.4-.96-.88-1.84-3.43-8.07-6.63,10.94-7.27,12.78-10.54,19.25-1.92,3.83-3.35,6.31-7.11,6.31-1.52,0-4.79-.4-6.47-3.59-1.2-2.24-2.32-6.95-5.35-14.46-6.23-15.25-11.42-28.03-11.42-32.82,0-2.88,1.84-6.15,5.91-6.15s7.75,3.04,9.02,7.35c3.91,13.1,3.99,13.58,4.63,15.49.96,3.04,2.4,7.11,4.63,12.7,3.59-5.75,8.23-12.7,11.42-17.97-1.04-3.04-2.32-6.23-2.32-9.66,0-5.11,2.88-7.75,8.23-7.75s5.75,2.56,6.07,5.59c.32,3.12.48,6.55,1.44,10.3,1.28,5.03,4.63,13.02,6.79,18.05,1.6-3.19,5.27-10.38,7.59-15.17,1.04-2.16,2.48-6.15,2.63-6.87.96-3.91,2.8-12.06,9.58-12.06,4.71,0,7.11,2.64,7.11,5.43,0,3.51-3.75,11.42-12.22,29.55l-3.43,7.35Z"/>
  </g>
</svg>