<svg width="28" height="28" viewBox="0 0 28 28" fill="none" xmlns="http://www.w3.org/2000/svg">
<g clip-path="url(#clip0_181_418)">
<circle cx="6.36885" cy="6.36885" r="6.36885" transform="matrix(1 0 0 -1 7.6311 20.3687)" fill="black"/>
<circle cx="2.2377" cy="2.2377" r="2.2377" transform="matrix(1 0 0 -1 11.7622 28)" fill="black"/>
<circle cx="2.2377" cy="2.2377" r="2.2377" transform="matrix(-4.37114e-08 -1 -1 4.37114e-08 28 16.2378)" fill="black"/>
<circle cx="2.2377" cy="2.2377" r="2.2377" transform="matrix(-1 3.39767e-08 3.39767e-08 1 16.2378 0)" fill="black"/>
<circle cx="2.2377" cy="2.2377" r="2.2377" transform="matrix(7.76881e-08 1 1 -7.76881e-08 0 11.7622)" fill="black"/>
<circle cx="2.2377" cy="2.2377" r="2.2377" transform="matrix(0.707107 -0.707107 -0.707107 -0.707107 22.3398 25.4819)" fill="black"/>
<circle cx="2.2377" cy="2.2377" r="2.2377" transform="matrix(-0.707107 -0.707107 -0.707107 0.707107 25.5044 5.66016)" fill="black"/>
<circle cx="2.2377" cy="2.2377" r="2.2377" transform="matrix(-0.707107 0.707107 0.707107 0.707107 5.68286 2.49561)" fill="black"/>
<circle cx="2.2377" cy="2.2377" r="2.2377" transform="matrix(0.707107 0.707107 0.707107 -0.707107 2.51831 22.3174)" fill="black"/>
</g>
<defs>
<clipPath id="clip0_181_418">
<rect width="28" height="28" fill="white"/>
</clipPath>
</defs>
</svg>
