<svg width="35" height="26" viewBox="0 0 35 26" fill="none" xmlns="http://www.w3.org/2000/svg">
<path d="M7 18V25" stroke="black" stroke-width="2" stroke-linecap="round" stroke-linejoin="round"/>
<path d="M4 22H10" stroke="black" stroke-width="2" stroke-linecap="round" stroke-linejoin="round"/>
<path d="M7 18C10.3137 18 13 15.3137 13 12C13 8.68629 10.3137 6 7 6C3.68629 6 1 8.68629 1 12C1 15.3137 3.68629 18 7 18Z" stroke="black" stroke-width="2" stroke-linecap="round" stroke-linejoin="round"/>
<path d="M29 1H34V6" stroke="black" stroke-width="2" stroke-linecap="round" stroke-linejoin="round"/>
<path d="M34 1L27.25 7.75" stroke="black" stroke-width="2" stroke-linecap="round" stroke-linejoin="round"/>
<path d="M23 18C26.3137 18 29 15.3137 29 12C29 8.68629 26.3137 6 23 6C19.6863 6 17 8.68629 17 12C17 15.3137 19.6863 18 23 18Z" stroke="black" stroke-width="2" stroke-linecap="round" stroke-linejoin="round"/>
</svg>
